<svg width="42.000000" height="42.000000" viewBox="0 0 42 42" fill="none" xmlns="http://www.w3.org/2000/svg" xmlns:xlink="http://www.w3.org/1999/xlink">
	<desc>
			Created with Pixso.
	</desc>
	<defs/>
	<path id="Path" d="M14.38 16.33C14.16 15.84 14.29 15.26 14.67 14.88L16.1 13.45C17.27 12.28 17.27 10.62 16.25 9.59L14.19 7.54C12.83 6.17 10.61 6.17 9.25 7.54L8.1 8.68C6.81 9.98 6.27 11.85 6.62 13.7C7.48 18.27 10.14 23.28 14.42 27.57C18.71 31.85 23.72 34.51 28.29 35.37C30.14 35.72 32.01 35.18 33.31 33.89L34.45 32.75C35.82 31.38 35.82 29.16 34.45 27.8L32.4 25.74C31.37 24.72 29.71 24.72 28.69 25.74L27.11 27.33C26.73 27.71 26.15 27.83 25.66 27.62C23.33 26.59 21.04 25.04 18.99 23C16.95 20.95 15.4 18.66 14.38 16.33Z" stroke="#737BE1" stroke-opacity="1.000000" stroke-width="3.000000" stroke-linejoin="round"/>
</svg>
